# xmcd
#
# Track frame offsets:
#	150
#	21265
#	38310
#	54147
#	72037
#	87272
#	100832
#	113670
#	131677
#	150397
#	169952
#	191067
#	208112
#	223950
#	241842
#	257075
#	270635
#	283470
#	301480
#	320197
#
# Disc length: 4530 seconds
#
# Revision: 3
# Processed by: cddbd v1.5.2PL0 Copyright (c) Steve Scherf et al.
# Submitted via: audiograbber 1.83.01
#
DISCID=2311b014
DTITLE=THM0605 - Top Hits Monthly (THM)
DYEAR=2005
DGENRE=Country - Karaoke
TTITLE0=Brooks, Garth and Yearwood, Trisha - Love Will Always Win (Vocals)
TTITLE1=Bentley, Dierks - Settle For a Slow Down (Vocals)
TTITLE2=Big and Rich - Never MInd Me (Vocals)
TTITLE3=Vassar, Phil - Last Day of My Life (Vocals)
TTITLE4=Underwood, Carrie - Before He Cheats (Vocals)
TTITLE5=McBride, Martina - I Still Miss Someone (Vocals)
TTITLE6=Currington, Billy - Why Why Why (Vocals)
TTITLE7=Clark, Terri - Damn Right (Vocals)
TTITLE8=Little Big Town - Bring It On Home (Vocals)
TTITLE9=Strait, George - Seashores of Old Mexico, The (Vocals)
TTITLE10=Garth Brooks and Trisha Yearwood - Love Will Always Win (THM)
TTITLE11=Dierks Bentley - Settle For a Slow Down (THM)
TTITLE12=Big and Rich - Never MInd Me (THM)
TTITLE13=Phil Vassar - Last Day of My Life (THM)
TTITLE14=Carrie Underwood - Before He Cheats (THM)
TTITLE15=Martina McBride - I Still Miss Someone (THM)
TTITLE16=Billy Currington - Why Why Why (THM)
TTITLE17=Terri Clark - Damn Right (THM)
TTITLE18=Little Big Town - Bring It On Home (THM)
TTITLE19=George Strait - The Seashores of Old Mexico (THM)
EXTD=
EXTT0=
EXTT1=
EXTT2=
EXTT3=
EXTT4=
EXTT5=
EXTT6=
EXTT7=
EXTT8=
EXTT9=
EXTT10=
EXTT11=
EXTT12=
EXTT13=
EXTT14=
EXTT15=
EXTT16=
EXTT17=
EXTT18=
EXTT19=
PLAYORDER=
